<?xml version="1.0" encoding="UTF-8" standalone="no"?>
<!DOCTYPE svg PUBLIC "-//W3C//DTD SVG 20010904//EN"
              "http://www.w3.org/TR/2001/REC-SVG-20010904/DTD/svg10.dtd">

<svg xmlns="http://www.w3.org/2000/svg"
     width="16.9306in" height="17.9167in"
     viewBox="0 0 1219 1290">
  <path id="Sans nom #3"
        fill="none" stroke="black" stroke-width="1"
        d="M 1098.00,616.00
           C 1098.00,616.00 1085.00,616.00 1085.00,616.00
             1085.00,616.00 1073.00,616.00 1073.00,616.00
             1073.00,616.00 1065.00,616.00 1065.00,616.00
             1065.00,616.00 1058.00,616.00 1058.00,616.00
             1058.00,616.00 1049.00,616.00 1049.00,616.00
             1049.00,616.00 1038.00,614.00 1038.00,614.00
             1038.00,614.00 1027.00,611.00 1027.00,611.00
             1027.00,611.00 1012.00,611.00 1012.00,611.00
             1012.00,611.00 997.00,608.00 997.00,608.00
             997.00,608.00 986.00,607.00 986.00,607.00
             986.00,607.00 975.00,606.00 975.00,606.00
             975.00,606.00 962.00,606.00 962.00,606.00
             962.00,606.00 946.45,605.82 946.45,605.82
             946.45,605.82 937.91,605.27 937.91,605.27
             937.91,605.27 929.09,605.00 929.09,605.00
             929.09,605.00 919.00,604.45 919.00,604.45
             919.00,604.45 910.64,604.18 910.64,604.18
             910.64,604.18 905.36,603.55 905.36,603.55
             905.36,603.55 880.00,602.91 880.00,602.91
             880.00,602.91 871.36,603.36 871.36,603.36
             871.36,603.36 863.18,603.09 863.18,603.09
             863.18,603.09 852.73,603.36 852.73,603.36
             852.73,603.36 843.27,603.55 843.27,603.55
             843.27,603.55 837.73,603.27 837.73,603.27
             837.73,603.27 816.91,604.27 816.91,604.27
             816.91,604.27 810.64,604.36 810.64,604.36
             810.64,604.36 805.09,604.36 805.09,604.36
             805.09,604.36 789.91,604.73 789.91,604.73
             789.91,604.73 781.27,605.73 781.18,605.73
             781.09,605.73 773.45,606.73 773.45,606.73
             773.45,606.73 766.27,607.36 766.27,607.36
             766.27,607.36 761.82,607.36 761.82,607.36
             761.82,607.36 748.91,608.27 748.91,608.27
             748.91,608.27 740.09,608.82 740.09,608.82
             740.09,608.82 734.00,609.36 734.00,609.36
             734.00,609.36 729.91,609.27 729.91,609.27
             729.91,609.27 702.64,609.18 702.64,609.18
             702.64,609.18 697.18,609.09 697.18,609.09
             697.18,609.09 693.45,608.82 693.45,608.82
             693.45,608.82 690.00,607.82 690.00,607.82
             690.00,607.82 685.91,607.36 685.91,607.36
             685.91,607.36 682.09,606.64 682.09,606.64
             682.09,606.64 679.18,605.64 679.18,605.64
             679.18,605.64 672.09,603.82 672.09,603.82
             672.09,603.82 668.91,602.82 668.91,602.82
             668.91,602.82 664.64,601.18 664.64,601.18
             664.64,601.18 661.82,599.55 661.82,599.55
             661.82,599.55 658.91,597.82 658.91,597.82
             658.91,597.82 656.18,596.64 656.18,596.64
             656.18,596.64 654.00,595.00 654.00,595.00
             654.00,595.00 651.09,593.09 651.09,593.09
             651.09,593.09 648.18,590.82 648.18,590.82
             648.18,590.82 646.55,589.45 646.55,589.45
             646.55,589.45 644.36,587.64 644.36,587.64
             644.36,587.64 642.55,585.55 642.55,585.55
             642.55,585.55 640.18,583.09 640.18,583.09
             640.18,583.09 638.27,580.82 638.27,580.82
             638.27,580.82 636.91,578.64 636.91,578.64
             636.91,578.64 635.36,576.36 635.36,576.36
             635.36,576.36 633.91,574.18 633.91,574.18
             633.91,574.18 632.18,571.82 632.18,571.82
             632.18,571.82 631.36,569.36 631.36,569.36
             631.36,569.36 629.55,565.73 629.55,565.73
             629.55,565.73 628.55,563.09 628.55,563.09
             628.55,563.09 627.18,560.00 627.18,560.00
             627.18,560.00 626.09,556.91 626.09,556.91
             626.09,556.91 625.09,553.64 625.09,553.64
             625.09,553.64 624.55,550.91 624.55,550.91
             624.55,550.91 623.73,547.55 623.73,547.55
             623.73,547.55 623.27,544.18 623.27,544.18
             623.27,544.18 622.82,539.82 622.82,539.82
             622.82,539.82 622.18,535.18 622.18,535.18
             622.18,535.18 622.09,500.91 622.09,500.91
             622.09,500.91 622.36,484.18 622.36,484.18
             622.36,484.18 622.64,481.09 622.64,481.09
             622.64,481.09 623.45,463.91 623.45,463.91
             623.45,463.91 623.55,459.09 623.55,459.09
             623.55,459.09 624.55,410.45 624.55,410.45
             624.55,410.45 624.45,407.00 624.45,407.00
             624.45,407.00 624.45,390.45 624.45,390.45
             624.45,390.45 624.45,374.00 624.45,374.00
             624.45,374.00 624.09,368.00 624.09,368.00
             624.09,368.00 623.91,365.27 623.91,365.27
             623.91,365.27 623.91,362.55 623.91,362.55
             623.91,362.55 623.82,360.55 623.82,360.55
             623.82,360.55 623.64,358.55 623.64,358.55
             623.64,358.55 623.36,349.00 623.36,349.00
             623.36,349.00 623.00,346.18 623.00,346.18
             623.00,346.18 622.91,343.27 622.91,343.27
             622.91,343.27 622.73,340.91 622.73,340.91
             622.73,340.91 622.55,338.64 622.55,338.64
             622.55,338.64 622.55,325.36 622.55,325.36
             622.55,325.36 622.45,319.64 622.45,319.64
             622.45,319.64 622.82,314.27 622.82,314.27
             622.82,314.27 623.55,310.18 623.55,310.18
             623.55,310.18 624.36,306.27 624.36,306.27
             624.36,306.27 625.27,302.91 625.27,302.91
             625.27,302.91 626.27,299.82 626.27,299.82
             626.27,299.82 627.73,296.45 627.73,296.45
             627.73,296.45 629.00,292.91 629.00,292.91
             629.00,292.91 631.27,289.09 631.27,289.09
             631.27,289.09 632.36,287.00 632.36,287.00
             632.36,287.00 633.82,283.45 633.82,283.45
             633.82,283.45 635.82,280.55 635.82,280.55
             635.82,280.55 638.18,277.09 638.18,277.09
             638.18,277.09 640.27,274.73 640.27,274.73
             640.27,274.73 643.36,271.91 643.36,271.91
             643.36,271.91 645.36,269.55 645.36,269.55
             645.36,269.55 649.09,267.18 649.09,267.18
             649.09,267.18 652.27,264.73 652.27,264.73
             652.27,264.73 655.27,263.09 655.27,263.09
             655.27,263.09 657.82,261.27 657.82,261.27
             657.82,261.27 661.18,259.45 661.18,259.45
             661.18,259.45 664.36,258.09 664.36,258.09
             664.36,258.09 668.73,256.45 668.73,256.45
             668.73,256.45 672.18,255.45 672.18,255.45
             672.18,255.45 674.73,255.18 674.73,255.18
             674.73,255.18 678.00,254.36 678.00,254.36
             678.00,254.36 681.27,253.45 681.27,253.45
             681.27,253.45 685.64,252.82 685.64,252.82
             685.64,252.82 688.45,252.27 688.45,252.27
             688.45,252.27 692.09,251.64 692.09,251.64
             692.09,251.64 695.91,251.00 695.91,251.00
             695.91,251.00 701.73,250.27 701.73,250.27
             701.73,250.27 707.36,250.27 707.36,250.27
             707.36,250.27 711.73,250.45 711.73,250.45
             711.73,250.45 738.91,250.73 738.91,250.73
             738.91,250.73 742.55,250.91 742.55,250.91
             742.55,250.91 745.82,251.36 745.82,251.36
             745.82,251.36 749.27,252.09 749.27,252.09
             749.27,252.09 756.18,252.36 756.18,252.36
             756.18,252.36 760.91,253.00 760.91,253.00
             760.91,253.00 766.18,253.45 766.18,253.45
             766.18,253.45 771.27,253.45 771.27,253.45
             771.27,253.45 775.73,253.91 775.73,253.91
             775.73,253.91 780.91,254.18 780.91,254.18
             780.91,254.18 787.00,254.00 787.00,254.00
             787.00,254.00 790.45,254.00 790.45,254.00
             790.45,254.00 814.09,254.27 814.09,254.27
             814.09,254.27 821.64,254.55 821.64,254.55
             821.64,254.55 827.82,253.45 827.82,253.45
             827.82,253.45 833.55,252.55 833.55,252.55
             833.55,252.55 836.91,252.00 836.91,252.00
             836.91,252.00 841.36,252.09 841.36,252.09
             841.36,252.09 845.91,251.27 845.91,251.27
             845.91,251.27 850.91,250.27 850.91,250.27
             850.91,250.27 863.18,249.18 863.18,249.18
             863.18,249.18 867.73,248.36 867.73,248.36
             867.73,248.36 873.27,247.55 873.27,247.55
             873.27,247.55 878.73,246.55 878.73,246.55
             878.73,246.55 886.45,245.18 886.45,245.18
             886.45,245.18 891.27,244.82 891.27,244.82
             891.27,244.82 896.55,243.73 896.55,243.73
             896.55,243.73 900.18,243.45 900.18,243.45
             900.18,243.45 909.64,242.18 909.64,242.18
             909.64,242.18 915.55,240.36 915.55,240.36
             915.55,240.36 921.00,238.09 921.00,238.09
             921.00,238.09 928.18,235.18 928.18,235.18
             928.18,235.18 934.00,233.45 934.00,233.45
             934.00,233.45 939.73,231.82 939.73,231.82
             939.73,231.82 943.55,231.00 943.55,231.00
             943.55,231.00 948.45,229.64 948.45,229.64
             948.45,229.64 951.27,228.82 951.27,228.82
             951.27,228.82 958.36,228.00 958.36,228.00
             958.36,228.00 966.27,227.18 966.27,227.18
             966.27,227.18 981.73,225.45 981.73,225.45
             981.73,225.45 987.00,224.82 987.00,224.82
             987.00,224.82 994.91,224.64 994.91,224.64
             994.91,224.64 1006.09,224.09 1006.09,224.09
             1006.09,224.09 1015.45,223.09 1015.45,223.09
             1015.45,223.09 1023.09,222.64 1023.09,222.64
             1023.09,222.64 1032.73,222.27 1032.73,222.27
             1032.73,222.27 1040.36,221.36 1040.36,221.36
             1040.36,221.36 1046.00,220.64 1046.00,220.64
             1046.00,220.64 1056.45,219.45 1056.45,219.45
             1056.45,219.45 1064.45,218.36 1064.45,218.36
             1064.45,218.36 1071.82,216.64 1071.82,216.64
             1071.82,216.64 1079.73,215.45 1079.73,215.45
             1079.73,215.45 1088.09,214.09 1088.09,214.09
             1088.09,214.09 1096.91,213.27 1096.91,213.27
             1096.91,213.27 1103.64,213.45 1103.64,213.45
             1103.64,213.45 1115.09,213.55 1115.09,213.55
             1115.09,213.55 1118.45,214.00 1118.45,214.00
             1118.45,214.00 1121.91,215.09 1121.91,215.09
             1121.91,215.09 1124.18,215.27 1124.18,215.27
             1124.18,215.27 1127.82,216.36 1127.82,216.36
             1127.82,216.36 1131.27,217.45 1131.27,217.45
             1131.27,217.45 1133.82,218.55 1133.82,218.55
             1133.82,218.55 1137.73,220.09 1137.73,220.09
             1137.73,220.09 1139.91,221.27 1139.91,221.27
             1139.91,221.27 1143.00,222.73 1143.00,222.73
             1143.00,222.73 1146.09,224.55 1146.09,224.55
             1146.09,224.55 1149.73,226.91 1149.73,226.91
             1149.73,226.91 1152.82,229.82 1152.82,229.82
             1152.82,229.82 1156.27,233.55 1156.27,233.55
             1156.27,233.55 1160.36,238.27 1160.36,238.27
             1160.36,238.27 1163.82,242.27 1163.82,242.36
             1163.82,242.45 1165.09,245.27 1165.09,245.27
             1165.09,245.27 1166.73,247.55 1166.73,247.55
             1166.73,247.55 1168.18,250.55 1168.18,250.55
             1168.18,250.55 1170.18,254.00 1170.18,254.00
             1170.18,254.00 1171.91,257.91 1171.91,257.91
             1171.91,257.91 1173.45,262.64 1173.45,262.64
             1173.45,262.64 1174.73,265.64 1174.73,265.64
             1174.73,265.64 1176.82,271.91 1176.82,271.91
             1176.82,271.91 1178.91,279.18 1178.91,279.09
             1178.91,279.00 1179.45,282.36 1179.45,282.45
             1179.45,282.55 1181.09,286.82 1181.09,286.82
             1181.09,286.82 1181.55,290.91 1181.55,290.91
             1181.55,290.91 1182.27,295.27 1182.27,295.27
             1182.27,295.27 1182.91,300.45 1182.91,300.45
             1182.91,300.45 1183.91,304.73 1183.91,304.73
             1183.91,304.73 1183.91,308.27 1183.91,308.27
             1183.91,308.27 1184.64,313.73 1184.64,313.73
             1184.64,313.73 1185.36,318.18 1185.36,318.18
             1185.36,318.18 1185.36,321.00 1185.36,321.00
             1185.36,321.00 1185.73,327.91 1185.73,327.91
             1185.73,327.91 1185.55,333.09 1185.55,333.09
             1185.55,333.09 1186.09,337.45 1186.09,337.45
             1186.09,337.45 1186.09,340.27 1186.09,340.27
             1186.09,340.27 1186.09,345.64 1186.09,345.64
             1186.09,345.64 1187.00,360.36 1187.00,360.36
             1187.00,360.36 1187.18,363.73 1187.18,363.73
             1187.18,363.73 1187.18,429.55 1187.18,429.55
             1187.18,429.55 1187.00,443.45 1187.00,443.45
             1187.00,443.45 1186.45,450.36 1186.45,450.36
             1186.45,450.36 1186.27,455.91 1186.27,455.91
             1186.27,455.91 1186.00,461.18 1186.00,461.18
             1186.00,461.18 1186.00,464.91 1186.00,464.91
             1186.00,464.91 1185.91,469.45 1185.91,469.45
             1185.91,469.45 1185.82,474.45 1185.82,474.45
             1185.82,474.45 1186.18,481.18 1186.18,481.18
             1186.18,481.18 1186.18,484.45 1186.18,484.45
             1186.18,484.45 1186.73,489.00 1186.73,489.00
             1186.73,489.00 1187.55,491.00 1187.55,491.00
             1187.55,491.00 1190.45,494.09 1190.45,494.09
             1190.45,494.09 1192.55,497.09 1192.55,497.09
             1192.55,497.09 1194.73,501.55 1194.73,501.55
             1194.73,501.55 1195.73,504.18 1195.73,504.18
             1195.73,504.18 1196.82,507.73 1196.82,507.73
             1196.82,507.73 1197.82,510.45 1197.82,510.45
             1197.82,510.45 1199.09,514.09 1199.09,514.09
             1199.09,514.09 1199.55,517.82 1199.55,517.82
             1199.55,517.82 1199.82,520.82 1199.82,520.82
             1199.82,520.82 1200.09,523.18 1200.09,523.18
             1200.09,523.18 1200.55,526.82 1200.55,526.82
             1200.55,526.82 1200.45,531.36 1200.45,531.36
             1200.45,531.36 1200.36,534.55 1200.36,534.55
             1200.36,534.55 1200.27,536.82 1200.27,536.82
             1200.27,536.82 1200.45,540.27 1200.45,540.27
             1200.45,540.27 1200.18,544.09 1200.18,544.09
             1200.18,544.09 1199.82,549.09 1199.82,549.09
             1199.82,549.09 1199.00,553.73 1199.00,553.73
             1199.00,553.73 1198.09,557.00 1198.09,557.00
             1198.09,557.00 1197.27,561.18 1197.27,561.18
             1197.27,561.18 1196.00,564.18 1196.00,564.18
             1196.00,564.18 1193.91,568.73 1193.91,568.73
             1193.91,568.73 1191.36,573.00 1191.36,573.00
             1191.36,573.00 1188.73,578.27 1188.73,578.27
             1188.73,578.27 1186.00,581.91 1186.00,581.91
             1186.00,581.91 1184.27,585.27 1184.18,585.36
             1184.09,585.45 1181.36,589.27 1181.36,589.27
             1181.36,589.27 1177.36,593.64 1177.36,593.64
             1177.36,593.64 1173.27,596.91 1173.27,596.91
             1173.27,596.91 1169.45,600.64 1169.45,600.64
             1169.45,600.64 1165.09,603.36 1165.09,603.36
             1165.09,603.36 1159.18,606.45 1159.18,606.45
             1159.18,606.45 1153.73,609.36 1153.73,609.36
             1153.73,609.36 1150.45,610.45 1150.45,610.45
             1150.45,610.45 1145.09,611.82 1145.09,611.82
             1145.09,611.82 1141.27,612.45 1141.27,612.45
             1141.27,612.45 1134.09,612.36 1134.09,612.36
             1134.09,612.36 1128.82,612.91 1128.82,612.91
             1128.82,612.91 1123.00,613.45 1123.00,613.45
             1123.00,613.45 1117.73,614.55 1117.73,614.55
             1117.73,614.55 1111.73,614.36 1111.73,614.36
             1111.73,614.36 1106.64,614.64 1106.55,614.64
             1106.45,614.64 1101.18,615.45 1101.18,615.36" />
</svg>
